# This file is brought to you by Roblox Corporation
# Generated by Roblox Studio

mtllib Block3.mtl

g Bigroof1

v 1.50996e-07 2 2 
v 4 -2 -2 
v 8.74228e-08 2 -2 
v 4 -2 2 
v -4 -2 -2 
v 4 -2 -2 
v 4 -2 2 
v 4 -2 -2 
v -4 -2 -2 
v 8.74228e-08 2 -2 
v -4 -2 -2 
v -4 -2 2 
v 8.74228e-08 2 -2 
v -4 -2 2 
v 4 -2 2 
v 1.50996e-07 2 2 
v -4 -2 2 
v 4 -2 2 
v 1.50996e-07 2 2 

vn 0.708661 0.708661 0 
vn 0.708661 0.708661 0 
vn 0.708661 0.708661 0 
vn 0.708661 0.708661 0 
vn 0 -1 0 
vn 0 -1 0 
vn 0 -1 0 
vn 0 0 -1 
vn 0 0 -1 
vn 0 0 -1 
vn -0.708661 0.708661 0 
vn -0.708661 0.708661 0 
vn -0.708661 0.708661 0 
vn 0 -1 0 
vn 0 -1 0 
vn 0 0 1 
vn 0 0 1 
vn 0 0 1 
vn -0.708661 0.708661 0 

vt -1.98187 3.11962 
vt -1.48187 2.61962 
vt -1.48187 3.11962 
vt -1.98187 2.61962 
vt -1.98187 3.61962 
vt -1.98187 2.61962 
vt -1.48187 2.61962 
vt -2.23187 2.86962 
vt -1.23187 2.86962 
vt -1.73187 3.36962 
vt -1.48187 3.61962 
vt -1.98187 3.61962 
vt -1.48187 3.11962 
vt -1.48187 3.61962 
vt -1.48187 2.61962 
vt -1.73187 3.36962 
vt -2.23187 2.86962 
vt -1.23187 2.86962 
vt -1.98187 3.11962 

usemtl Bigroof1Mtl

f 1/1/1 2/2/2 3/3/3 
f 4/4/4 2/2/2 1/1/1 
f 5/5/5 6/6/6 7/7/7 
f 8/8/8 9/9/9 10/10/10 
f 11/11/11 12/12/12 13/13/13 
f 14/14/14 5/5/5 15/15/15 
f 16/16/16 17/17/17 18/18/18 
f 13/13/13 12/12/12 19/19/19 

