# This file is brought to you by Roblox Corporation
# Generated by Roblox Studio

mtllib Block2.mtl

g Roof1

v -2 -2 -2 
v -8.74228e-08 2 -2 
v -8.74228e-08 -2 -2 
v -2 -2 -2 
v -2 -2 2 
v -8.74228e-08 2 -2 
v -2 -2 2 
v 8.74228e-08 -2 2 
v 8.74228e-08 2 2 
v 8.74228e-08 -2 2 
v -2 -2 2 
v -2 -2 -2 
v 2.91409e-08 -2 0.666667 
v 8.74228e-08 2 2 
v 2.91409e-08 2 0.666667 
v 2.91409e-08 2 0.666667 
v 2.91409e-08 -2 0.666667 
v -8.74228e-08 -2 -2 
v 2.91409e-08 -2 0.666667 
v -8.74228e-08 -2 -2 
v 5.2108e-15 0 7.54979e-08 
v 5.2108e-15 0 7.54979e-08 
v -8.74228e-08 2 -2 
v 2.91409e-08 2 0.666667 
v 5.2108e-15 0 7.54979e-08 
v 2 -2 2 
v 8.74228e-08 -2 2 
v 2.91409e-08 -2 0.666667 
v 2 -2 2 
v 8.74228e-08 2 2 
v 8.74228e-08 -2 2 
v 2.91409e-08 -2 0.666667 
v 1.50996e-07 -2 -2 
v 2 -2 2 
v 2 -2 -2 
v 8.74228e-08 2 2 
v 2.91409e-08 2 0.666667 
v 5.2108e-15 0 7.54979e-08 
v 1.50996e-07 -2 -2 
v 2.91409e-08 -2 0.666667 
v 2 -2 -2 
v 1.50996e-07 -2 -2 
v 1.50996e-07 2 -2 
v 2 -2 -2 
v 2.91409e-08 2 0.666667 
v 1.50996e-07 2 -2 
v 5.2108e-15 0 7.54979e-08 
v 5.2108e-15 0 7.54979e-08 
v 1.50996e-07 2 -2 
v 2.91409e-08 2 0.666667 

vn 0 0 -1 
vn 0 0 -1 
vn 0 0 -1 
vn -0.897638 0.448819 0 
vn -0.897638 0.448819 0 
vn -0.897638 0.448819 0 
vn 0 0 1 
vn 0 0 1 
vn 0 0 1 
vn 0 -1 0 
vn 0 -1 0 
vn 0 -1 0 
vn 0 -1 0 
vn -0.897638 0.448819 0 
vn -0.897638 0.448819 0 
vn -0.897638 0.448819 0 
vn 0 -1 0 
vn 0 -1 0 
vn 1 0 0 
vn 1 0 0 
vn 1 0 0 
vn 1 0 0 
vn 1 0 0 
vn 1 0 0 
vn 1 0 0 
vn 0 -1 0 
vn 0 -1 0 
vn 0 -1 0 
vn 0 0 1 
vn 0 0 1 
vn 0 0 1 
vn 0 -1 0 
vn 0 -1 0 
vn 0.897638 0.448819 0 
vn 0.897638 0.448819 0 
vn 0.897638 0.448819 0 
vn 0.897638 0.448819 0 
vn -1 0 0 
vn -1 0 0 
vn -1 0 0 
vn 0 -1 0 
vn 0 0 -1 
vn 0 0 -1 
vn 0 0 -1 
vn -1 0 0 
vn -1 0 0 
vn -1 0 0 
vn -1 0 0 
vn 0.897638 0.448819 0 
vn 0.897638 0.448819 0 

vt 2.71985 3.37904 
vt 2.46985 3.87904 
vt 2.46985 3.37904 
vt 2.21985 3.37904 
vt 2.71985 3.37904 
vt 2.21985 3.87904 
vt 2.21985 3.37904 
vt 2.46985 3.37904 
vt 2.46985 3.87904 
vt 2.21985 3.62904 
vt 2.21985 3.37904 
vt 2.71985 3.37904 
vt 2.38652 3.62904 
vt 2.71985 3.87904 
vt 2.55318 3.87904 
vt 2.55318 3.87904 
vt 2.38652 3.62904 
vt 2.71985 3.62904 
vt 2.38652 3.37904 
vt 2.71985 3.37904 
vt 2.46985 3.62904 
vt 2.46985 3.62904 
vt 2.71985 3.87904 
vt 2.38652 3.87904 
vt 2.46985 3.62904 
vt 2.21985 3.87904 
vt 2.21985 3.62904 
vt 2.38652 3.62904 
vt 2.71985 3.37904 
vt 2.46985 3.87904 
vt 2.46985 3.37904 
vt 2.38652 3.62904 
vt 2.71985 3.62904 
vt 2.21985 3.37904 
vt 2.71985 3.37904 
vt 2.21985 3.87904 
vt 2.38652 3.87904 
vt 2.46985 3.62904 
vt 2.21985 3.37904 
vt 2.55318 3.37904 
vt 2.71985 3.87904 
vt 2.46985 3.37904 
vt 2.46985 3.87904 
vt 2.21985 3.37904 
vt 2.55318 3.87904 
vt 2.21985 3.87904 
vt 2.46985 3.62904 
vt 2.46985 3.62904 
vt 2.71985 3.87904 
vt 2.38652 3.87904 

usemtl Roof1Mtl

f 1/1/1 2/2/2 3/3/3 
f 4/4/4 5/5/5 6/6/6 
f 7/7/7 8/8/8 9/9/9 
f 10/10/10 11/11/11 12/12/12 
f 13/13/13 10/10/10 12/12/12 
f 5/5/5 14/14/14 15/15/15 
f 6/6/6 5/5/5 16/16/16 
f 17/17/17 12/12/12 18/18/18 
f 19/19/19 20/20/20 21/21/21 
f 22/22/22 23/23/23 24/24/24 
f 25/25/25 20/20/20 23/23/23 
f 26/26/26 27/27/27 28/28/28 
f 29/29/29 30/30/30 31/31/31 
f 32/32/32 33/33/33 26/26/26 
f 34/34/34 35/35/35 36/36/36 
f 36/36/36 35/35/35 37/37/37 
f 38/38/38 39/39/39 40/40/40 
f 41/41/41 26/26/26 33/33/33 
f 42/42/42 43/43/43 44/44/44 
f 45/45/45 46/46/46 47/47/47 
f 48/48/48 46/46/46 39/39/39 
f 35/35/35 49/49/49 50/50/50 

