# This file is brought to you by Roblox Corporation
# Generated by Roblox Studio

mtllib Block1.mtl

g Arch1

v 4 2 -2 
v 4 2 2 
v 4 -2 -2 
v 4 -2 2 
v -4 2 2 
v 4 2 2 
v -4 2 -2 
v 4 2 -2 
v -4 2 2 
v -4 2 -2 
v -4 -2 2 
v -4 -2 -2 
v -4 -2 2 
v -2 -2 2 
v -1.89737 -1.36754 2 
v -4 2 2 
v -1.89737 -1.36754 2 
v 4 2 -2 
v 1.41421 -0.585786 -2 
v 1.1094 -0.3359 -2 
v 1.89737 -1.36754 -2 
v 1.6641 -0.890598 -2 
v 1.89737 -1.36754 2 
v 2 -2 2 
v 4 -2 2 
v 1.6641 -0.890598 2 
v 1.89737 -1.36754 2 
v 1.6641 -0.890598 2 
v 4 2 2 
v 4 -2 2 
v 2 -2 2 
v 2 -2 -2 
v -1.6641 -0.890599 2 
v -1.41421 -0.585786 2 
v -1.41421 -0.585786 2 
v -1.1094 -0.3359 2 
v -1.1094 -0.3359 2 
v -0.632455 -0.102633 2 
v -0.632455 -0.102633 2 
v 8.74228e-08 0 2 
v 0.632456 -0.102634 2 
v 8.74228e-08 0 2 
v 0.632456 -0.102634 2 
v 1.1094 -0.3359 2 
v 1.41421 -0.585786 2 
v 1.6641 -0.890598 2 
v 1.1094 -0.3359 2 
v 1.41421 -0.585786 2 
v 0.632456 -0.102634 2 
v -2 -2 -2 
v -2 -2 2 
v -4 -2 -2 
v -1.89737 -1.36754 2 
v -1.6641 -0.890599 2 
v -1.89737 -1.36754 -2 
v -2 -2 -2 
v -4 -2 -2 
v -1.6641 -0.890599 -2 
v -1.89737 -1.36754 -2 
v -1.6641 -0.890599 -2 
v -4 2 -2 
v 4 -2 -2 
v 2 -2 -2 
v 4 -2 -2 
v 2 -2 -2 
v 1.89737 -1.36754 -2 
v 1.6641 -0.890598 -2 
v 1.41421 -0.585786 -2 
v 0.632456 -0.102634 -2 
v -8.74228e-08 0 -2 
v 1.1094 -0.3359 -2 
v 0.632456 -0.102634 -2 
v -0.632455 -0.102633 -2 
v -8.74228e-08 0 -2 
v -2 -2 2 
v -4 -2 2 
v -0.632455 -0.102633 -2 
v -0.632455 -0.102633 -2 
v -1.1094 -0.3359 -2 
v -1.1094 -0.3359 -2 
v -1.41421 -0.585786 -2 
v -1.41421 -0.585786 -2 
v -1.6641 -0.890599 -2 
v 1.89737 -1.36754 -2 
v -0.632455 -0.102633 -2 
v 8.74228e-08 0 2 
v -0.632455 -0.102633 2 
v -1.41421 -0.585786 -2 
v -1.41421 -0.585786 2 
v -1.6641 -0.890599 -2 
v -1.1094 -0.3359 2 
v -1.41421 -0.585786 -2 
v -1.1094 -0.3359 -2 
v -0.632455 -0.102633 2 
v -1.1094 -0.3359 -2 
v -0.632455 -0.102633 -2 
v 8.74228e-08 0 2 
v -0.632455 -0.102633 -2 
v -8.74228e-08 0 -2 
v 2 -2 2 
v 1.89737 -1.36754 -2 
v 2 -2 -2 
v 1.89737 -1.36754 2 
v 1.6641 -0.890598 -2 
v 1.89737 -1.36754 -2 
v 1.6641 -0.890598 2 
v 1.41421 -0.585786 -2 
v 1.6641 -0.890598 -2 
v 1.41421 -0.585786 2 
v 1.1094 -0.3359 -2 
v 1.41421 -0.585786 -2 
v 1.1094 -0.3359 2 
v 0.632456 -0.102634 -2 
v 1.1094 -0.3359 -2 
v 0.632456 -0.102634 2 
v -8.74228e-08 0 -2 
v 0.632456 -0.102634 -2 
v -1.6641 -0.890599 2 
v -1.89737 -1.36754 -2 
v -1.6641 -0.890599 -2 
v 1.1094 -0.3359 -2 
v 1.41421 -0.585786 2 
v 1.1094 -0.3359 2 
v 0.632456 -0.102634 -2 
v 1.1094 -0.3359 2 
v 0.632456 -0.102634 2 
v -8.74228e-08 0 -2 
v 0.632456 -0.102634 2 
v 8.74228e-08 0 2 
v 1.41421 -0.585786 2 
v 1.41421 -0.585786 -2 
v 1.6641 -0.890598 2 
v 1.6641 -0.890598 -2 
v 1.89737 -1.36754 2 
v 1.6641 -0.890598 2 
v 1.89737 -1.36754 -2 
v 2 -2 2 
v 1.89737 -1.36754 2 
v -1.1094 -0.3359 -2 
v -0.632455 -0.102633 2 
v -1.1094 -0.3359 2 
v -1.41421 -0.585786 -2 
v -1.1094 -0.3359 2 
v -1.41421 -0.585786 2 
v -1.6641 -0.890599 -2 
v -1.41421 -0.585786 2 
v -1.6641 -0.890599 2 
v -1.89737 -1.36754 -2 
v -1.6641 -0.890599 2 
v -1.89737 -1.36754 2 
v -2 -2 2 
v -2 -2 -2 
v -1.89737 -1.36754 2 
v -1.89737 -1.36754 2 
v -2 -2 -2 
v -1.89737 -1.36754 -2 

vn 1 0 0 
vn 1 0 0 
vn 1 0 0 
vn 1 0 0 
vn 0 1 0 
vn 0 1 0 
vn 0 1 0 
vn 0 1 0 
vn -1 0 0 
vn -1 0 0 
vn -1 0 0 
vn -1 0 0 
vn 0 0 1 
vn 0 0 1 
vn 0 0 1 
vn 0 0 1 
vn 0 0 1 
vn 0 0 -1 
vn 0 0 -1 
vn 0 0 -1 
vn 0 0 -1 
vn 0 0 -1 
vn 0 0 1 
vn 0 0 1 
vn 0 0 1 
vn 0 0 1 
vn 0 0 1 
vn 0 0 1 
vn 0 0 1 
vn 0 -1 0 
vn 0 -1 0 
vn 0 -1 0 
vn 0 0 1 
vn 0 0 1 
vn 0 0 1 
vn 0 0 1 
vn 0 0 1 
vn 0 0 1 
vn 0 0 1 
vn 0 0 1 
vn 0 0 1 
vn 0 0 1 
vn 0 0 1 
vn 0 0 1 
vn 0 0 1 
vn 0 0 1 
vn 0 0 1 
vn 0 0 1 
vn 0 0 1 
vn 0 -1 0 
vn 0 -1 0 
vn 0 -1 0 
vn 0 0 1 
vn 0 0 1 
vn 0 0 -1 
vn 0 0 -1 
vn 0 0 -1 
vn 0 0 -1 
vn 0 0 -1 
vn 0 0 -1 
vn 0 0 -1 
vn 0 -1 0 
vn 0 -1 0 
vn 0 0 -1 
vn 0 0 -1 
vn 0 0 -1 
vn 0 0 -1 
vn 0 0 -1 
vn 0 0 -1 
vn 0 0 -1 
vn 0 0 -1 
vn 0 0 -1 
vn 0 0 -1 
vn 0 0 -1 
vn 0 -1 0 
vn 0 -1 0 
vn 0 0 -1 
vn 0 0 -1 
vn 0 0 -1 
vn 0 0 -1 
vn 0 0 -1 
vn 0 0 -1 
vn 0 0 -1 
vn 0 0 -1 
vn 0.314961 -0.944882 0 
vn 0 -1 0 
vn 0.314961 -0.944882 0 
vn 0.708661 -0.708661 0 
vn 0.708661 -0.708661 0 
vn 0.834646 -0.551181 0 
vn 0.551181 -0.834646 0 
vn 0.708661 -0.708661 0 
vn 0.551181 -0.834646 0 
vn 0.314961 -0.944882 0 
vn 0.551181 -0.834646 0 
vn 0.314961 -0.944882 0 
vn 0 -1 0 
vn 0.314961 -0.944882 0 
vn 0 -1 0 
vn -1 0 0 
vn -0.944882 -0.314961 0 
vn -1 0 0 
vn -0.944882 -0.314961 0 
vn -0.834646 -0.551181 0 
vn -0.944882 -0.314961 0 
vn -0.834646 -0.551181 0 
vn -0.708661 -0.708661 0 
vn -0.834646 -0.551181 0 
vn -0.708661 -0.708661 0 
vn -0.551181 -0.834646 0 
vn -0.708661 -0.708661 0 
vn -0.551181 -0.834646 0 
vn -0.314961 -0.944882 0 
vn -0.551181 -0.834646 0 
vn -0.314961 -0.944882 0 
vn 0 -1 0 
vn -0.314961 -0.944882 0 
vn 0.834646 -0.551181 0 
vn 0.944882 -0.314961 0 
vn 0.834646 -0.551181 0 
vn -0.551181 -0.834646 0 
vn -0.708661 -0.708661 0 
vn -0.551181 -0.834646 0 
vn -0.314961 -0.944882 0 
vn -0.551181 -0.834646 0 
vn -0.314961 -0.944882 0 
vn 0 -1 0 
vn -0.314961 -0.944882 0 
vn 0 -1 0 
vn -0.708661 -0.708661 0 
vn -0.708661 -0.708661 0 
vn -0.834646 -0.551181 0 
vn -0.834646 -0.551181 0 
vn -0.944882 -0.314961 0 
vn -0.834646 -0.551181 0 
vn -0.944882 -0.314961 0 
vn -1 0 0 
vn -0.944882 -0.314961 0 
vn 0.551181 -0.834646 0 
vn 0.314961 -0.944882 0 
vn 0.551181 -0.834646 0 
vn 0.708661 -0.708661 0 
vn 0.551181 -0.834646 0 
vn 0.708661 -0.708661 0 
vn 0.834646 -0.551181 0 
vn 0.708661 -0.708661 0 
vn 0.834646 -0.551181 0 
vn 0.944882 -0.314961 0 
vn 0.834646 -0.551181 0 
vn 0.944882 -0.314961 0 
vn 1 0 0 
vn 1 0 0 
vn 0.944882 -0.314961 0 
vn 0.944882 -0.314961 0 
vn 1 0 0 
vn 0.944882 -0.314961 0 

vt -6.89875 -4.3041 
vt -7.39875 -4.3041 
vt -6.89875 -4.8041 
vt -7.39875 -4.8041 
vt -6.89875 -5.0541 
vt -6.89875 -4.0541 
vt -7.39875 -5.0541 
vt -7.39875 -4.0541 
vt -6.89875 -4.3041 
vt -7.39875 -4.3041 
vt -6.89875 -4.8041 
vt -7.39875 -4.8041 
vt -7.64875 -4.8041 
vt -7.39875 -4.8041 
vt -7.38592 -4.72504 
vt -7.64875 -4.3041 
vt -7.38592 -4.72504 
vt -7.64875 -4.3041 
vt -7.32553 -4.62732 
vt -7.28743 -4.59608 
vt -7.38592 -4.72504 
vt -7.35676 -4.66542 
vt -6.91158 -4.72504 
vt -6.89875 -4.8041 
vt -6.64875 -4.8041 
vt -6.94074 -4.66542 
vt -6.91158 -4.72504 
vt -6.94074 -4.66542 
vt -6.64875 -4.3041 
vt -7.39875 -4.0541 
vt -7.39875 -4.3041 
vt -6.89875 -4.3041 
vt -7.35676 -4.66542 
vt -7.32553 -4.62732 
vt -7.32553 -4.62732 
vt -7.28743 -4.59608 
vt -7.28743 -4.59608 
vt -7.22781 -4.56693 
vt -7.22781 -4.56693 
vt -7.14875 -4.5541 
vt -7.06969 -4.56693 
vt -7.14875 -4.5541 
vt -7.06969 -4.56693 
vt -7.01008 -4.59608 
vt -6.97198 -4.62732 
vt -6.94074 -4.66542 
vt -7.01008 -4.59608 
vt -6.97198 -4.62732 
vt -7.06969 -4.56693 
vt -6.89875 -4.8041 
vt -7.39875 -4.8041 
vt -6.89875 -5.0541 
vt -7.38592 -4.72504 
vt -7.35676 -4.66542 
vt -6.91158 -4.72504 
vt -6.89875 -4.8041 
vt -6.64875 -4.8041 
vt -6.94074 -4.66542 
vt -6.91158 -4.72504 
vt -6.94074 -4.66542 
vt -6.64875 -4.3041 
vt -6.89875 -4.0541 
vt -6.89875 -4.3041 
vt -7.64875 -4.8041 
vt -7.39875 -4.8041 
vt -7.38592 -4.72504 
vt -7.35676 -4.66542 
vt -7.32553 -4.62732 
vt -7.22781 -4.56693 
vt -7.14875 -4.5541 
vt -7.28743 -4.59608 
vt -7.22781 -4.56693 
vt -7.0697 -4.56693 
vt -7.14875 -4.5541 
vt -7.39875 -4.8041 
vt -7.39875 -5.0541 
vt -7.0697 -4.56693 
vt -7.0697 -4.56693 
vt -7.01008 -4.59608 
vt -7.01008 -4.59608 
vt -6.97198 -4.62732 
vt -6.97198 -4.62732 
vt -6.94074 -4.66542 
vt -7.38592 -4.72504 
vt -6.89875 -4.63315 
vt -7.39875 -4.5541 
vt -7.39875 -4.63315 
vt -6.89875 -4.62732 
vt -7.39875 -4.62732 
vt -6.89875 -4.66542 
vt -7.39875 -4.69277 
vt -6.89875 -4.73087 
vt -6.89875 -4.69277 
vt -7.39875 -4.63315 
vt -6.89875 -4.69277 
vt -6.89875 -4.63315 
vt -7.39875 -4.5541 
vt -6.89875 -4.63315 
vt -6.89875 -4.5541 
vt -6.89875 -4.8041 
vt -7.39875 -4.72504 
vt -7.39875 -4.8041 
vt -6.89875 -4.72504 
vt -7.39875 -4.66542 
vt -7.39875 -4.72504 
vt -6.89875 -4.66542 
vt -7.39875 -4.62732 
vt -7.39875 -4.66542 
vt -7.39875 -4.37732 
vt -6.89875 -4.41542 
vt -6.89875 -4.37732 
vt -7.39875 -4.41542 
vt -6.89875 -4.47504 
vt -6.89875 -4.41542 
vt -7.39875 -4.47504 
vt -6.89875 -4.5541 
vt -6.89875 -4.47504 
vt -7.39875 -4.66542 
vt -6.89875 -4.72504 
vt -6.89875 -4.66542 
vt -6.89875 -4.41542 
vt -7.39875 -4.37732 
vt -7.39875 -4.41542 
vt -6.89875 -4.47504 
vt -7.39875 -4.41542 
vt -7.39875 -4.47504 
vt -6.89875 -4.5541 
vt -7.39875 -4.47504 
vt -7.39875 -4.5541 
vt -6.89875 -4.62732 
vt -7.39875 -4.62732 
vt -6.89875 -4.66542 
vt -7.39875 -4.66542 
vt -6.89875 -4.72504 
vt -6.89875 -4.66542 
vt -7.39875 -4.72504 
vt -6.89875 -4.8041 
vt -6.89875 -4.72504 
vt -6.89875 -4.69277 
vt -7.39875 -4.63315 
vt -7.39875 -4.69277 
vt -6.89875 -4.73087 
vt -7.39875 -4.69277 
vt -7.39875 -4.73087 
vt -6.89875 -4.66542 
vt -7.39875 -4.62732 
vt -7.39875 -4.66542 
vt -6.89875 -4.72504 
vt -7.39875 -4.66542 
vt -7.39875 -4.72504 
vt -7.39875 -4.8041 
vt -6.89875 -4.8041 
vt -7.39875 -4.72504 
vt -7.39875 -4.72504 
vt -6.89875 -4.8041 
vt -6.89875 -4.72504 

usemtl Arch1Mtl

f 1/1/1 2/2/2 3/3/3 
f 3/3/3 2/2/2 4/4/4 
f 5/5/5 6/6/6 7/7/7 
f 7/7/7 6/6/6 8/8/8 
f 9/9/9 10/10/10 11/11/11 
f 11/11/11 10/10/10 12/12/12 
f 13/13/13 14/14/14 15/15/15 
f 16/16/16 13/13/13 17/17/17 
f 18/18/18 19/19/19 20/20/20 
f 18/18/18 21/21/21 22/22/22 
f 23/23/23 24/24/24 25/25/25 
f 25/25/25 26/26/26 27/27/27 
f 28/28/28 25/25/25 29/29/29 
f 30/30/30 31/31/31 32/32/32 
f 16/16/16 33/33/33 34/34/34 
f 16/16/16 35/35/35 36/36/36 
f 16/16/16 37/37/37 38/38/38 
f 39/39/39 40/40/40 16/16/16 
f 41/41/41 16/16/16 42/42/42 
f 43/43/43 44/44/44 29/29/29 
f 45/45/45 46/46/46 29/29/29 
f 47/47/47 48/48/48 29/29/29 
f 49/49/49 29/29/29 16/16/16 
f 50/50/50 51/51/51 52/52/52 
f 16/16/16 53/53/53 54/54/54 
f 55/55/55 56/56/56 57/57/57 
f 57/57/57 58/58/58 59/59/59 
f 60/60/60 57/57/57 61/61/61 
f 62/62/62 30/30/30 63/63/63 
f 64/64/64 65/65/65 66/66/66 
f 18/18/18 67/67/67 68/68/68 
f 69/69/69 70/70/70 18/18/18 
f 18/18/18 71/71/71 72/72/72 
f 73/73/73 18/18/18 74/74/74 
f 75/75/75 76/76/76 52/52/52 
f 77/77/77 61/61/61 18/18/18 
f 78/78/78 79/79/79 61/61/61 
f 80/80/80 81/81/81 61/61/61 
f 82/82/82 83/83/83 61/61/61 
f 18/18/18 64/64/64 84/84/84 
f 85/85/85 86/86/86 87/87/87 
f 88/88/88 89/89/89 90/90/90 
f 91/91/91 92/92/92 93/93/93 
f 94/94/94 95/95/95 96/96/96 
f 97/97/97 98/98/98 99/99/99 
f 100/100/100 101/101/101 102/102/102 
f 103/103/103 104/104/104 105/105/105 
f 106/106/106 107/107/107 108/108/108 
f 109/109/109 110/110/110 111/111/111 
f 112/112/112 113/113/113 114/114/114 
f 115/115/115 116/116/116 117/117/117 
f 118/118/118 119/119/119 120/120/120 
f 121/121/121 122/122/122 123/123/123 
f 124/124/124 125/125/125 126/126/126 
f 127/127/127 128/128/128 129/129/129 
f 130/130/130 131/131/131 132/132/132 
f 133/133/133 134/134/134 135/135/135 
f 136/136/136 137/137/137 138/138/138 
f 139/139/139 140/140/140 141/141/141 
f 142/142/142 143/143/143 144/144/144 
f 145/145/145 146/146/146 147/147/147 
f 148/148/148 149/149/149 150/150/150 
f 151/151/151 152/152/152 153/153/153 
f 154/154/154 155/155/155 156/156/156 

