# Gem

# Top Center (Table)
v 0.000 0.500 0.000

# Crown Upper Ring (Table Edges)
v 0.383 0.500 0.000
v 0.271 0.500 0.271
v 0.000 0.500 0.383
v -0.271 0.500 0.271
v -0.383 0.500 0.000
v -0.271 0.500 -0.271
v 0.000 0.500 -0.383
v 0.271 0.500 -0.271

# Girdle Ring (Outer Edge)
v 1.000 0.000 0.000
v 0.707 0.000 0.707
v 0.000 0.000 1.000
v -0.707 0.000 0.707
v -1.000 0.000 0.000
v -0.707 0.000 -0.707
v 0.000 0.000 -1.000
v 0.707 0.000 -0.707

# Bottom Point (Culet)
v 0.000 -0.800 0.000

# Faces: Table
f 9 8 7 6 5 4 3 2

# Faces: Crown (Upper Slopes)
f 3 11 10 2
f 4 12 11 3
f 5 13 12 4
f 6 14 13 5
f 7 15 14 6
f 8 16 15 7
f 9 17 16 8
f 2 10 17 9

# Faces: Pavilion (Bottom Cone)
f 18 10 11
f 18 11 12
f 18 12 13
f 18 13 14
f 18 14 15
f 18 15 16
f 18 16 17
f 18 17 10